<svg width="12" height="12" viewBox="0 0 12 12" fill="none" xmlns="http://www.w3.org/2000/svg">
<path d="M4.44088 0.300216L4.74 0.449776C5.23332 0.696438 5.63334 1.09645 5.88 1.58978C5.92944 1.68866 6.07056 1.68866 6.12 1.58978C6.36666 1.09645 6.76668 0.696438 7.26 0.449776L7.55912 0.300216C8.16627 -0.00335819 8.86198 -0.0797284 9.52053 0.084908C10.1541 0.243309 10.7139 0.614983 11.1058 1.13747L11.2737 1.36131C11.7451 1.98995 12 2.75456 12 3.54036V3.79036C12 4.14862 11.9561 4.50553 11.8692 4.85309L11.8106 5.08724C11.6056 5.90732 11.2387 6.67814 10.7315 7.3544L10.3905 7.80915C10.1305 8.1558 9.84622 8.48355 9.53983 8.78995L9.19392 9.13586C8.40314 9.92663 7.49006 10.5847 6.4898 11.0849C6.18146 11.239 5.81854 11.239 5.5102 11.0849C4.50994 10.5847 3.59686 9.92663 2.80608 9.13586L2.46017 8.78995C2.15378 8.48355 1.86952 8.1558 1.60953 7.80915L1.26847 7.3544C0.761274 6.67814 0.394386 5.90732 0.189366 5.08724L0.130828 4.85309C0.0439373 4.50553 0 4.14862 0 3.79036V3.54036C0 2.75456 0.254868 1.98995 0.726349 1.36131L0.894231 1.13747C1.28609 0.614983 1.84586 0.243309 2.47947 0.084908C3.13802 -0.0797284 3.83373 -0.00335819 4.44088 0.300216Z" fill="#687684"/>
</svg>
