<svg width="40" height="40" viewBox="0 0 40 40" fill="none" xmlns="http://www.w3.org/2000/svg">
<circle cx="20" cy="20" r="20" fill="#08AE2D"/>
<g clip-path="url(#clip0_4_510)">
<path d="M24.82 22.1733L23.1267 21.98C22.72 21.9333 22.32 22.0733 22.0334 22.36L20.8067 23.5867C18.92 22.6267 17.3734 21.0867 16.4134 19.1933L17.6467 17.96C17.9334 17.6733 18.0734 17.2733 18.0267 16.8667L17.8334 15.1867C17.7534 14.5133 17.1867 14.0067 16.5067 14.0067H15.3534C14.6 14.0067 13.9734 14.6333 14.02 15.3867C14.3734 21.08 18.9267 25.6267 24.6134 25.98C25.3667 26.0267 25.9934 25.4 25.9934 24.6467V23.4933C26 22.82 25.4934 22.2533 24.82 22.1733Z" fill="white"/>
</g>
<defs>
<clipPath id="clip0_4_510">
<rect width="16" height="16" fill="white" transform="translate(12 12)"/>
</clipPath>
</defs>
</svg>
