<svg width="40" height="40" viewBox="0 0 40 40" fill="none" xmlns="http://www.w3.org/2000/svg">
<circle cx="20" cy="20" r="20" fill="#E9AD13"/>
<g clip-path="url(#clip0_4_511)">
<path d="M25.3333 13.3333H14.6666C13.9333 13.3333 13.3399 13.9333 13.3399 14.6667L13.3333 26.6667L15.9999 24H25.3333C26.0666 24 26.6666 23.4 26.6666 22.6667V14.6667C26.6666 13.9333 26.0666 13.3333 25.3333 13.3333ZM23.3333 21.3333H16.6666C16.2999 21.3333 15.9999 21.0333 15.9999 20.6667C15.9999 20.3 16.2999 20 16.6666 20H23.3333C23.6999 20 23.9999 20.3 23.9999 20.6667C23.9999 21.0333 23.6999 21.3333 23.3333 21.3333ZM23.3333 19.3333H16.6666C16.2999 19.3333 15.9999 19.0333 15.9999 18.6667C15.9999 18.3 16.2999 18 16.6666 18H23.3333C23.6999 18 23.9999 18.3 23.9999 18.6667C23.9999 19.0333 23.6999 19.3333 23.3333 19.3333ZM23.3333 17.3333H16.6666C16.2999 17.3333 15.9999 17.0333 15.9999 16.6667C15.9999 16.3 16.2999 16 16.6666 16H23.3333C23.6999 16 23.9999 16.3 23.9999 16.6667C23.9999 17.0333 23.6999 17.3333 23.3333 17.3333Z" fill="white"/>
</g>
<defs>
<clipPath id="clip0_4_511">
<rect width="16" height="16" fill="white" transform="translate(12 12)"/>
</clipPath>
</defs>
</svg>
